<?xml version="1.0" encoding="UTF-8"?><svg id="Layer_2" xmlns="http://www.w3.org/2000/svg" xmlns:xlink="http://www.w3.org/1999/xlink" viewBox="0 0 39.91 42.7"><defs><style>.cls-1,.cls-2{fill:#fff;}.cls-3{fill:#c3002f;}.cls-3,.cls-2{fill-rule:evenodd;}.cls-4{fill:#dd0031;}.cls-5{mask:url(#mask);}</style><mask id="mask" x="0" y="0" width="39.91" height="42.7" maskUnits="userSpaceOnUse"><g id="mask-2"><polygon id="path-1-2" class="cls-2" points="19.95 0 19.95 0 19.95 0 0 7.09 3.04 33.37 19.95 42.7 19.95 42.7 19.95 42.7 36.86 33.37 39.91 7.09 19.95 0"/></g></mask></defs><g id="Layer_1-2"><g id="Page-1"><g id="primeng-logo-horizontal"><g id="icon-primeng"><g id="angular-back"><g id="Shape"><polygon id="path-1" class="cls-4" points="19.95 0 19.95 0 19.95 0 0 7.09 3.04 33.37 19.95 42.7 19.95 42.7 19.95 42.7 36.86 33.37 39.91 7.09 19.95 0"/></g><g class="cls-5"><polygon id="Shape-path" class="cls-3" points="19.95 0 19.95 4.74 19.95 4.72 19.95 26.34 19.95 26.34 19.95 42.7 19.95 42.7 36.86 33.37 39.91 7.09 19.95 0"/></g></g><g id="head"><polygon id="chick-right" class="cls-1" points="25.8 20.25 23.89 19.82 25.38 21.95 25.38 28.54 30.48 24.29 30.48 17.06 28.14 17.91 25.8 20.25"/><polygon id="chick-left" class="cls-1" points="13.89 20.25 15.81 19.82 14.32 21.95 14.32 28.54 9.21 24.29 9.21 17.06 11.55 17.91 13.89 20.25"/><polygon id="mask-2" class="cls-2" points="14.93 22.35 16.63 19.79 17.69 20.43 21.93 20.43 22.99 19.79 24.69 22.35 24.69 31.94 23.42 33.85 21.93 35.34 17.69 35.34 16.21 33.85 14.93 31.94 14.93 22.35"/><polygon id="bottom-chick-right" class="cls-1" points="25.38 32.58 28.14 29.82 28.14 27.05 25.38 29.39 25.38 32.58"/><polygon id="bottom-chick-left" class="cls-1" points="14.32 32.58 11.55 29.82 11.55 27.05 14.32 29.39 14.32 32.58"/><path class="cls-2" d="m20.27,19.61V7.49h2.34l1.69,4.02,7.88-.62-1.28,5.32-9.15,3.4h-1.49Zm-.85-12.12v12.12h-1.28l-9.15-3.4-1.28-5.32,7.66.62,1.69-4.02h2.34Z"/><polygon id="ear-right" class="cls-1" points="24.74 10.89 29.2 10.47 26.23 7.49 23.25 7.49 24.74 10.89"/><polygon id="ear-left" class="cls-1" points="14.96 10.89 10.49 10.47 13.47 7.49 16.44 7.49 14.96 10.89"/></g></g></g></g></g></svg>